<?xml version="1.0" standalone="no"?>
<!DOCTYPE svg PUBLIC "-//W3C//DTD SVG 20010904//EN"
 "http://www.w3.org/TR/2001/REC-SVG-20010904/DTD/svg10.dtd">
<svg version="1.0" xmlns="http://www.w3.org/2000/svg"
 width="300.000000pt" height="300.000000pt" viewBox="0 0 300.000000 300.000000"
 preserveAspectRatio="xMidYMid meet">
<metadata>
Created by potrace 1.11, written by Peter Selinger 2001-2013
</metadata>
<g transform="translate(0.000000,300.000000) scale(0.100000,-0.100000)"
fill="#000000" stroke="none">
<path d="M730 2612 c0 -6 5 -14 10 -17 6 -4 8 -10 5 -15 -3 -4 2 -10 10 -14 8
-3 15 -12 15 -21 0 -8 5 -15 10 -15 6 0 10 -5 10 -12 0 -6 9 -31 21 -55 11
-24 22 -49 23 -55 1 -7 5 -19 9 -25 19 -30 -23 1 -93 68 -9 9 -31 22 -48 30
-18 8 -32 17 -32 21 0 5 -3 7 -7 7 -5 -1 -11 0 -15 1 -5 1 -12 4 -18 5 -5 1
-12 4 -15 5 -3 1 -9 4 -15 5 -5 1 -11 3 -12 4 -6 5 -88 6 -88 1 0 -3 13 -14
30 -25 31 -21 28 -35 -11 -38 -13 0 -27 -5 -30 -10 -3 -4 -16 -9 -27 -10 -12
-1 -22 -4 -22 -8 0 -7 -52 -33 -62 -31 -5 1 -8 -2 -8 -7 0 -5 -14 -20 -32 -32
-18 -13 -28 -17 -24 -8 4 7 -1 4 -11 -9 -10 -13 -26 -24 -33 -26 -8 -1 -24 -7
-35 -12 -22 -12 -105 -12 -147 0 -19 6 -28 4 -28 -3 0 -16 30 -61 42 -61 5 0
14 -5 21 -10 7 -6 21 -18 32 -26 11 -9 14 -12 6 -8 -9 5 -12 3 -7 -4 4 -7 14
-12 22 -12 8 0 14 -4 14 -8 0 -4 18 -28 40 -52 22 -24 43 -52 46 -62 3 -10 10
-18 15 -18 5 0 9 -5 9 -11 0 -6 11 -20 25 -31 14 -11 25 -24 25 -29 0 -12 49
-59 62 -59 5 0 6 -5 2 -12 -4 -6 -3 -8 3 -5 5 4 20 -3 31 -14 12 -11 22 -16
22 -12 0 4 7 -1 15 -11 8 -11 15 -17 15 -13 0 4 18 -2 40 -13 22 -11 40 -18
40 -16 0 3 15 0 33 -5 49 -15 269 -12 295 4 14 9 51 0 68 -17 10 -10 24 -42
30 -68 1 -5 3 -11 4 -15 2 -5 4 -12 5 -18 2 -5 4 -13 5 -17 1 -5 3 -11 4 -15
1 -5 7 -18 14 -29 6 -12 8 -24 5 -28 -3 -3 -1 -6 6 -6 7 0 10 -4 7 -9 -4 -5
-3 -11 1 -13 5 -1 25 -29 46 -60 40 -59 53 -97 62 -183 3 -27 7 -61 10 -75 3
-14 8 -50 11 -80 3 -30 7 -58 10 -61 2 -3 6 -25 9 -48 3 -23 9 -51 15 -61 5
-10 10 -26 10 -36 0 -17 38 -123 87 -239 42 -101 142 -296 169 -330 l15 -20
15 20 c26 35 129 238 166 330 55 133 88 222 88 239 0 9 4 26 10 36 5 10 12 34
15 52 2 18 6 42 9 54 2 12 7 45 11 75 3 30 9 68 12 84 3 17 6 41 8 55 10 96
34 170 55 170 6 0 10 6 10 13 0 7 8 22 18 33 10 10 19 21 19 24 1 3 6 18 12
33 6 16 11 33 11 38 0 5 5 9 11 9 5 0 8 4 4 9 -3 5 0 13 6 16 5 4 8 13 5 21
-3 8 -2 14 2 14 4 0 8 12 9 26 0 15 7 30 15 35 7 5 9 9 5 9 -5 0 -1 7 8 16 17
18 48 21 100 10 34 -6 207 -8 245 -2 14 2 37 9 53 15 15 6 27 8 27 6 0 -3 10
1 23 10 13 8 27 12 30 8 4 -3 7 -2 7 4 0 6 19 23 43 37 41 25 146 116 117 102
-8 -4 -5 1 7 12 13 11 23 23 23 27 0 3 4 11 10 18 5 7 31 39 57 72 49 63 101
115 114 115 13 0 59 54 59 68 0 11 -7 12 -27 6 -43 -12 -126 -12 -148 0 -11 5
-27 11 -35 12 -8 2 -20 10 -26 18 -6 9 -14 13 -17 9 -4 -3 -7 -1 -7 5 0 7 -6
12 -14 12 -8 0 -21 9 -29 20 -8 11 -17 17 -20 14 -4 -4 -9 0 -13 9 -3 9 -11
14 -18 11 -7 -3 -19 2 -26 11 -7 8 -20 15 -30 15 -9 0 -20 3 -24 8 -8 7 -13 9
-46 11 -13 1 -17 6 -13 16 3 9 8 14 10 11 4 -4 43 29 43 37 0 2 -84 -1 -87 -4
-2 -1 -6 -2 -10 -3 -5 -1 -14 -5 -20 -9 -7 -5 -13 -6 -13 -2 0 3 -10 0 -22 -7
-13 -7 -26 -11 -30 -10 -5 1 -8 -2 -8 -7 0 -5 -13 -14 -30 -21 -16 -7 -30 -17
-30 -22 0 -5 -4 -7 -9 -4 -5 3 -11 -1 -15 -9 -3 -8 -13 -15 -21 -15 -9 0 -14
-4 -11 -9 3 -4 -6 -19 -19 -31 -14 -13 -25 -18 -25 -12 0 6 8 16 18 21 9 6 12
11 5 11 -12 0 29 111 52 137 31 37 35 43 29 43 -3 0 -1 7 6 15 17 21 7 29 -19
15 -12 -6 -21 -8 -21 -4 0 4 -8 -2 -17 -12 -10 -11 -30 -29 -44 -39 -14 -11
-27 -24 -28 -30 -2 -5 -7 -9 -13 -7 -5 1 -7 -2 -4 -7 4 -5 2 -12 -4 -16 -18
-11 -78 -122 -101 -186 -12 -35 -27 -70 -32 -76 -5 -7 -7 -13 -4 -13 3 0 1
-15 -4 -32 -6 -18 -12 -41 -14 -51 -2 -10 -7 -27 -10 -37 -3 -10 -8 -28 -10
-39 -3 -12 -7 -31 -11 -43 -3 -13 -7 -34 -10 -48 -3 -14 -8 -34 -11 -45 -8
-24 -10 -31 -12 -47 0 -6 -7 -3 -15 8 -18 24 -33 12 -41 -35 -3 -19 -8 -37
-10 -41 -2 -4 -7 -22 -10 -40 -3 -18 -11 -42 -18 -54 -6 -11 -11 -23 -12 -26
0 -3 -10 -19 -22 -36 -41 -57 -141 -84 -177 -48 -9 8 -16 12 -16 8 0 -4 -16 7
-35 26 l-35 34 -39 -38 c-23 -23 -51 -39 -72 -43 -19 -2 -36 -6 -37 -8 -2 -2
-18 1 -35 7 -37 12 -107 83 -107 107 0 9 -4 21 -9 26 -8 9 -27 76 -37 134 -9
47 -29 55 -44 19 -7 -19 -9 -20 -11 -5 -2 20 -2 21 -17 71 -6 22 -9 42 -7 45
3 2 1 9 -4 15 -8 10 -14 34 -26 101 -2 11 -4 21 -5 23 -2 1 -3 5 -4 10 -2 4
-8 27 -15 52 -7 25 -14 50 -16 55 -1 6 -8 24 -14 40 -7 17 -14 37 -16 45 -2 8
-4 17 -5 20 -1 3 -2 8 -1 13 0 4 -3 7 -8 7 -5 0 -12 9 -16 20 -3 11 -21 41
-39 67 -18 27 -34 53 -35 58 -2 6 -5 12 -8 15 -4 3 -3 -2 1 -10 5 -8 -3 -1
-18 15 -14 17 -25 34 -26 38 0 5 -4 6 -9 2 -5 -3 -16 3 -23 12 -7 10 -17 19
-23 20 -5 1 -18 5 -27 8 -10 4 -18 3 -18 -3z m-37 -263 c89 -46 80 -143 -13
-137 -47 2 -80 25 -97 65 -14 35 -6 67 18 75 27 9 71 8 92 -3z m1689 4 c16 -3
30 -13 34 -26 12 -35 13 -47 3 -47 -6 0 -8 -4 -5 -9 4 -5 -8 -21 -25 -35 -35
-30 -101 -36 -125 -11 -30 30 -27 62 12 99 35 34 52 39 106 29z m-802 -966
c64 -42 75 -76 74 -222 -1 -118 -4 -139 -33 -227 -33 -103 -109 -278 -120
-278 -11 0 -62 111 -56 121 4 5 2 9 -3 9 -28 0 -91 222 -99 346 -9 155 14 219
92 262 35 20 109 14 145 -11z"/>
</g>
</svg>
